<svg height="475pt" viewBox="-49 0 475 475.566" width="475pt" xmlns="http://www.w3.org/2000/svg" xmlns:xlink="http://www.w3.org/1999/xlink"><linearGradient id="a"><stop offset="0" stop-color="#6078ea"/><stop offset="1" stop-color="#17ead9"/></linearGradient><linearGradient id="b" gradientUnits="userSpaceOnUse" x1="310.0859" x2="51.0859" xlink:href="#a" y1="438.702" y2="141.7021"/><linearGradient id="c" gradientUnits="userSpaceOnUse" x1="296.1523" x2="37.1523" xlink:href="#a" y1="450.8529" y2="153.8529"/><path d="m347.382812 189.183594h-16.761718v-47.308594c0-78.230469-63.644532-141.875-141.875-141.875-78.230469 0-141.875 63.644531-141.875 141.875v47.308594h-16.761719c-16.445313 0-29.828125 13.382812-29.828125 29.828125v226.726562c0 16.445313 13.382812 29.828125 29.828125 29.828125h317.273437c16.445313 0 29.828126-13.382812 29.828126-29.828125v-226.726562c0-16.445313-13.382813-29.828125-29.828126-29.828125zm-287.511718-47.308594c0-71.0625 57.8125-128.875 128.875-128.875s128.875 57.8125 128.875 128.875v47.308594h-28.777344v-50.304688c0-55.195312-44.902344-100.101562-100.097656-100.101562-55.195313 0-100.097656 44.90625-100.097656 100.101562v50.304688h-28.777344zm215.972656-2.996094v50.304688h-174.195312v-50.304688c0-48.027344 39.070312-87.101562 87.097656-87.101562 48.023437 0 87.097656 39.074218 87.097656 87.101562zm88.367188 106.347656h-81.867188c-3.589844 0-6.5 2.910157-6.5 6.5 0 3.589844 2.910156 6.5 6.5 6.5h81.867188v13.882813h-81.867188c-3.589844 0-6.5 2.910156-6.5 6.5s2.910156 6.5 6.5 6.5h81.867188v13.882813h-40.089844c-3.589844 0-6.5 2.910156-6.5 6.5 0 3.589843 2.910156 6.5 6.5 6.5h40.089844v13.882812h-40.089844c-3.589844 0-6.5 2.910156-6.5 6.5s2.910156 6.5 6.5 6.5h40.089844v13.882812h-40.089844c-3.589844 0-6.5 2.910157-6.5 6.5 0 3.589844 2.910156 6.5 6.5 6.5h40.089844v13.882813h-81.867188c-3.589844 0-6.5 2.910156-6.5 6.5s2.910156 6.5 6.5 6.5h81.867188v13.882813h-81.867188c-3.589844 0-6.5 2.910156-6.5 6.5 0 3.589843 2.910156 6.5 6.5 6.5h81.867188v13.882812h-30.828126c-3.589843 0-6.5 2.910156-6.5 6.5s2.910157 6.5 6.5 6.5h30.792969c-.355469 8.96875-7.742187 16.160156-16.792969 16.160156h-317.273437c-9.050781 0-16.4375-7.191406-16.792969-16.160156h30.792969c3.589844 0 6.5-2.910156 6.5-6.5s-2.910156-6.5-6.5-6.5h-30.828125v-13.882812h81.867188c3.589843 0 6.5-2.910157 6.5-6.5 0-3.589844-2.910157-6.5-6.5-6.5h-81.867188v-13.882813h81.867188c3.589843 0 6.5-2.910156 6.5-6.5s-2.910157-6.5-6.5-6.5h-81.867188v-13.882813h40.085938c3.59375 0 6.5-2.910156 6.5-6.5 0-3.59375-2.90625-6.5-6.5-6.5h-40.085938v-13.882812h40.085938c3.59375 0 6.5-2.910156 6.5-6.5s-2.90625-6.5-6.5-6.5h-40.085938v-13.882812h40.085938c3.59375 0 6.5-2.910157 6.5-6.5 0-3.589844-2.90625-6.5-6.5-6.5h-40.085938v-13.882813h81.867188c3.589843 0 6.5-2.910156 6.5-6.5s-2.910157-6.5-6.5-6.5h-81.867188v-13.882813h81.867188c3.589843 0 6.5-2.910156 6.5-6.5 0-3.589843-2.910157-6.5-6.5-6.5h-81.867188v-13.882812h30.828125c3.589844 0 6.5-2.910156 6.5-6.5s-2.910156-6.5-6.5-6.5h-30.792969c.355469-8.96875 7.742188-16.160156 16.792969-16.160156h317.273437c9.050782 0 16.4375 7.191406 16.792969 16.160156h-30.792969c-3.589843 0-6.5 2.910156-6.5 6.5s2.910157 6.5 6.5 6.5h30.828126zm0 0" fill="url(#b)"/><path d="m188.746094 244.789062c-29.742188 0-53.9375 24.195313-53.9375 53.9375 0 17.503907 8.289062 33.589844 22.347656 43.71875v48.195313c0 17.417969 14.171875 31.585937 31.589844 31.585937 17.417968 0 31.589844-14.167968 31.589844-31.585937v-48.195313c14.058593-10.128906 22.351562-26.214843 22.351562-43.71875-.003906-29.742187-24.199219-53.9375-53.941406-53.9375zm21.648437 88.679688c-1.902343 1.183594-3.0625 3.269531-3.0625 5.515625v51.65625c0 10.25-8.339843 18.589844-18.585937 18.589844-10.25 0-18.589844-8.339844-18.589844-18.589844v-51.65625c0-2.246094-1.15625-4.332031-3.058594-5.515625-12.082031-7.53125-19.289062-20.519531-19.289062-34.738281 0-22.574219 18.363281-40.941407 40.9375-40.941407 22.574218 0 40.9375 18.367188 40.9375 40.941407 0 14.21875-7.207032 27.207031-19.289063 34.738281zm0 0" fill="url(#c)"/></svg>