<?xml version="1.0"?>
<svg xmlns="http://www.w3.org/2000/svg" height="512px" viewBox="0 -5 508.002 508" width="512px" class=""><g><path d="m137.851562 375.5625c-10.695312-7.773438-20.679687-16.480469-29.832031-26.023438.445313-.835937-11.300781-12.976562-11.300781-12.976562-4.167969-5.230469-8.027344-10.695312-11.566406-16.371094-15.726563-25.269531-23.960938-54.480468-23.753906-84.246094v-89.222656c53.605468-23.296875 104.445312-52.503906 151.570312-87.078125-5.707031-4-11.363281-8.070312-16.964844-12.214843-47.976562 35.542968-99.84375 65.5-154.605468 89.292968v89.222656c-.207032 29.765626 8.03125 58.976563 23.757812 84.246094 3.535156 5.675782 7.398438 11.140625 11.566406 16.371094 0 0 11.742188 12.140625 11.296875 12.976562 9.15625 9.542969 19.140625 18.25 29.835938 26.023438 15.589843 11.304688 32.289062 20.988281 49.84375 28.90625-10.347657-5.648438-20.320313-11.960938-29.847657-18.90625zm0 0" fill="#d4e1f4" data-original="#D4E1F4" class=""/><path d="m350.601562 137.699219v-.976563c-9.484374-4.117187-18.882812-8.429687-28.195312-12.929687 9.304688 4.820312 18.703125 9.453125 28.195312 13.90625zm0 0" fill="#d4e1f4" data-original="#D4E1F4" class=""/><g fill="#0635c9"><path d="m95.808594 401.792969c46.984375 34.390625 93.265625 48.160156 95.210937 48.730469 1.082031.316406 2.230469.320312 3.316407.011718.988281-.277344 24.589843-7.023437 55.527343-22.832031 1.925781-.964844 3.1875-2.886719 3.300781-5.039063.117188-2.152343-.929687-4.203124-2.742187-5.367187-1.808594-1.167969-4.109375-1.273437-6.019531-.277344-16.605469 8.558594-33.882813 15.742188-51.667969 21.46875-8.605469-2.761719-49.394531-16.777343-89.839844-46.378906-26.476562-19.378906-47.546875-41.523437-62.625-65.8125-18.757812-30.21875-28.269531-63.949219-28.269531-100.246094v-106.28125c65.199219-28.265625 126.9375-63.929687 184-106.28125 57.0625 42.351563 118.800781 78.011719 184 106.28125v106.28125c.035156 15.269531-1.785156 30.492188-5.425781 45.324219-.796875 3.214844 1.164062 6.46875 4.378906 7.269531 3.21875.796875 6.472656-1.164062 7.269531-4.378906 3.875-15.777344 5.8125-31.96875 5.777344-48.214844v-110.222656c0-2.398437-1.425781-4.566406-3.628906-5.511719l-1.25-.539062c-66.582032-28.648438-129.527344-65.09375-187.519532-108.578125-2.136718-1.597657-5.066406-1.597657-7.203124 0-57.992188 43.484375-120.941407 79.929687-187.523438 108.578125l-1.246094.539062c-2.203125.945313-3.628906 3.113282-3.628906 5.511719v110.222656c0 38.566407 10.117188 74.425781 30.074219 106.574219 15.894531 25.605469 38.011719 48.875 65.734375 69.167969zm0 0" data-original="#0635C9" class="active-path" style="fill:#318CD4" data-old_color="#0635C9"/><path d="m350.601562 225.945312c.039063 13.972657-1.78125 27.886719-5.414062 41.375-.871094 3.199219 1.011719 6.496094 4.210938 7.367188 3.199218.871094 6.496093-1.015625 7.367187-4.210938 3.910156-14.519531 5.875-29.492187 5.835937-44.53125v-93.167968c0-2.394532-1.429687-4.5625-3.628906-5.511719l-1.058594-.453125c-56.210937-24.1875-109.355468-54.957031-158.3125-91.667969-2.136718-1.597656-5.066406-1.597656-7.203124 0-48.960938 36.710938-102.101563 67.480469-158.316407 91.667969l-1.054687.453125c-2.203125.949219-3.628906 3.117187-3.628906 5.511719v93.167968c-.21875 32.003907 8.644531 63.410157 25.5625 90.574219 13.5 21.746094 32.269531 41.5 55.800781 58.726563 39.84375 29.164062 79.113281 40.847656 80.765625 41.332031 1.082031.316406 2.230468.320313 3.316406.015625.824219-.234375 20.535156-5.867188 46.457031-19.039062 2.953125-1.5 4.132813-5.113282 2.632813-8.066407-1.503906-2.953125-5.113282-4.132812-8.070313-2.632812-13.710937 7.027343-27.960937 12.941406-42.621093 17.683593-26.941407-9.144531-52.359376-22.285156-75.398438-38.976562-10.695312-7.773438-20.679688-16.484375-29.832031-26.023438.457031-.867187.699219-1.832031.699219-2.8125v-11.617187c0-3.3125-2.6875-6-6-6-3.316407 0-6 2.6875-6 6v1.453125c-4.167969-5.230469-8.027344-10.695312-11.566407-16.371094-15.722656-25.269531-23.957031-54.480468-23.746093-84.246094v-89.222656c54.761718-23.792968 106.628906-53.75 154.601562-89.292968 47.972656 35.542968 99.839844 65.5 154.601562 89.292968zm0 0" data-original="#0635C9" class="active-path" style="fill:#318CD4" data-old_color="#0635C9"/><path d="m190 325.109375v11.621094c0 3.3125 2.6875 6 6 6s6-2.6875 6-6v-11.621094c0-3.3125-2.6875-6-6-6s-6 2.6875-6 6zm0 0" data-original="#0635C9" class="active-path" style="fill:#318CD4" data-old_color="#0635C9"/><path d="m225.761719 325.109375v11.621094c0 3.3125 2.6875 6 6 6s6-2.6875 6-6v-11.621094c0-3.3125-2.6875-6-6-6s-6 2.6875-6 6zm0 0" data-original="#0635C9" class="active-path" style="fill:#318CD4" data-old_color="#0635C9"/><path d="m152.238281 325.109375v11.621094c0 3.3125 2.6875 6 6 6s6-2.6875 6-6v-11.621094c0-3.3125-2.6875-6-6-6s-6 2.6875-6 6zm0 0" data-original="#0635C9" class="active-path" style="fill:#318CD4" data-old_color="#0635C9"/><path d="m114.480469 325.109375v11.621094c0 3.3125 2.683593 6 6 6 3.3125 0 6-2.6875 6-6v-11.621094c0-3.3125-2.6875-6-6-6-3.316407 0-6 2.6875-6 6zm0 0" data-original="#0635C9" class="active-path" style="fill:#318CD4" data-old_color="#0635C9"/></g><path d="m415.414062 339.21875c-2.902343 1.597656-3.960937 5.246094-2.359374 8.148438 16.957031 30.890624 8.53125 69.558593-19.746094 90.59375-28.277344 21.03125-67.734375 17.980468-92.441406-7.148438-24.707032-25.128906-27.09375-64.632812-5.585938-92.550781 21.503906-27.917969 60.308594-35.691407 90.910156-18.210938 2.875 1.644531 6.542969.652344 8.191406-2.226562 1.644532-2.875.648438-6.539063-2.226562-8.1875-35.796875-20.453125-81.195312-11.363281-106.359375 21.292969-25.160156 32.65625-22.375 78.875 6.527344 108.273437 28.90625 29.398437 75.066406 32.964844 108.148437 8.359375 33.078125-24.605469 42.9375-69.84375 23.089844-105.980469-1.597656-2.902343-5.246094-3.960937-8.148438-2.363281zm0 0" fill="#1ae5be" data-original="#1AE5BE" class=""/><path d="m351.15625 352.015625c-16.207031 0-29.339844 13.140625-29.339844 29.34375s13.136719 29.339844 29.34375 29.339844c16.203125 0 29.339844-13.136719 29.339844-29.339844 0-3.316406-2.6875-6-6-6s-6 2.683594-6 6c0 9.578125-7.765625 17.339844-17.34375 17.339844-9.574219 0-17.339844-7.761719-17.339844-17.339844s7.765625-17.34375 17.339844-17.34375c3.316406 0 6-2.6875 6-6s-2.683594-6-6-6zm0 0" fill="#1ae5be" data-original="#1AE5BE" class=""/><path d="m502.589844 266.210938-33.019532-3.269532-3.265624-33.015625c-.226563-2.308593-1.765626-4.28125-3.949219-5.058593-2.183594-.78125-4.621094-.234376-6.261719 1.40625l-45.832031 45.828124c-1.492188 1.492188-2.089844 3.65625-1.578125 5.703126l.097656.398437c-17.726562-10.164063-37.816406-15.484375-58.253906-15.425781-52.984375.015625-99.410156 35.484375-113.359375 86.601562-13.949219 51.117188 8.027343 105.25 53.664062 132.175782 45.632813 26.929687 103.644531 19.992187 141.648438-16.929688 38-36.925781 46.601562-94.710938 20.996093-141.101562l1.238282.308593c2.042968.511719 4.207031-.085937 5.699218-1.578125l45.832032-45.832031c1.636718-1.640625 2.1875-4.078125 1.40625-6.261719s-2.75-3.722656-5.058594-3.949218zm-46.976563-22.488282 2.222657 22.472656-31.75 31.746094-4.9375-19.753906zm.5 136.636719c0 58.308594-47.269531 105.578125-105.582031 105.578125-58.308594 0-105.582031-47.269531-105.582031-105.578125 0-58.3125 47.269531-105.582031 105.578125-105.582031 22.511718-.066406 44.441406 7.128906 62.53125 20.523437l3.132812 12.539063-69.277344 69.277344c-1.550781 1.507812-2.167968 3.734374-1.617187 5.824218.550781 2.09375 2.183594 3.726563 4.273437 4.277344 2.09375.550781 4.320313-.066406 5.828126-1.617188l69.277343-69.277343 11.988281 3c12.699219 17.8125 19.5 39.15625 19.445313 61.035156zm-1.785156-68.988281-19.757813-4.941406 31.75-31.746094 22.472657 2.222656zm0 0" fill="#1ae5be" data-original="#1AE5BE" class=""/></g> </svg>
