<?xml version="1.0"?>
<svg xmlns="http://www.w3.org/2000/svg" height="512px" viewBox="-8 0 500 500.64" width="512px" class=""><g><path d="m129.824219 433.527344-.105469 7.316406 20 .125.109375-7.441406c.046875-3.277344 2.71875-5.914063 6-5.914063h-20c-3.28125 0-5.953125 2.632813-6.003906 5.914063zm0 0" fill="#d4e1f4" data-original="#D4E1F4" class="active-path" style="fill:#D4E1F4"/><path d="m200.445312 345.34375c-.261718-.679688-.394531-1.398438-.394531-2.125-.023437-9.386719-.082031-20.019531-.152343-21.242188-2.71875-51.992187-45.734376-92.722656-97.800782-92.597656-.371094 0-.742187 0-1.113281.003906-.496094 0-.988281.023438-1.480469.035157v1.5c44.714844 7.96875 78.035156 45.707031 80.402344 91.066406.070312 1.21875.128906 11.855469.152344 21.238281 0 .726563.132812 1.449219.394531 2.125l19.222656 50.371094h20zm0 0" fill="#d4e1f4" data-original="#D4E1F4" class="active-path" style="fill:#D4E1F4"/><path d="m165.035156 401.71875v25.902344h20v-25.902344c0-3.3125 2.683594-6 6-6h-20c-3.316406 0-6 2.6875-6 6zm0 0" fill="#d4e1f4" data-original="#D4E1F4" class="active-path" style="fill:#D4E1F4"/><path d="m128.34375 494.640625v-23.761719c1.222656-3.65625 4.648438-6.125 8.507812-6.121094 4.265626.019532 9.175782.039063 13.792969.0625 1.109375 1.472657 2.839844 2.351563 4.6875 2.378907l41.710938.640625h.230469c11.105468.042968 20.148437-8.925782 20.191406-20.035156.042968-11.105469-8.929688-20.148438-20.035156-20.191407h-.394532v-19.894531h24.644532c3.496093 0 6.765624-1.71875 8.746093-4.59375 1.984375-2.878906 2.421875-6.546875 1.175781-9.8125l-19.554687-51.222656c-.011719-4.910156-.058594-19.03125-.167969-20.800782-3.226562-58.773437-52.171875-104.582031-111.03125-103.90625-.949218.007813-1.890625.03125-2.832031.066407-34.695313 1.214843-66.308594 20.246093-83.617187 50.339843-17.851563 30.4375-18.785157 67.914063-2.472657 99.199219 3.050781 7.566407 10.726563 28.027344 11.664063 36.871094v90.78125c0 3.3125 2.683594 6 6 6h92.753906c3.3125 0 6-2.6875 6-6zm74.734375-52.578125c1.511719 1.542969 2.339844 3.625 2.300781 5.78125-.082031 4.453125-3.726562 8.015625-8.179687 8l-35.691407-.546875.226563-15.679687h35.625c2.15625.015624 4.21875.898437 5.71875 2.445312zm-102.097656-212.679688c.371093-.007812.742187-.007812 1.117187-.007812 52.0625-.121094 95.078125 40.605469 97.796875 92.597656.070313 1.222656.128907 11.855469.152344 21.242188 0 .726562.136719 1.445312.394531 2.125l19.234375 50.378906h-28.640625c-3.316406 0-6 2.6875-6 6v25.902344h-29.210937c-3.28125 0-5.953125 2.632812-6 5.910156l-.109375 7.441406-20.933594-.128906c-15.949219-.164062-28.753906-13.210938-28.625-29.160156l.085938-9.011719c17.363281-3.390625 29.984374-18.472656 30.261718-36.164063l.054688-3.914062c.246094-18.386719-12.929688-34.21875-31.054688-37.316406v-95.855469c.492188-.019531.980469-.035156 1.476563-.039063zm-7.535157 107.363282c6.742188.0625 13.179688 2.808594 17.890626 7.625 4.710937 4.820312 7.308593 11.320312 7.21875 18.058594l-.054688 3.917968c-.214844 13.847656-11.488281 24.96875-25.339844 25h-.238281c-6.738281-.066406-13.175781-2.808594-17.886719-7.628906-4.710937-4.820312-7.308594-11.316406-7.21875-18.058594l.050782-3.914062c.210937-13.945313 11.632812-25.109375 25.578124-25zm23.078126 131.832031c-.117188.476563-.179688.96875-.179688 1.460937v18.601563h-80.753906v-85.085937c0-.183594-.011719-.371094-.027344-.554688-1.128906-12.136719-11.445312-37.886719-12.617188-40.78125-.074218-.179688-.15625-.355469-.246093-.527344-14.527344-27.679687-13.746094-60.902344 2.070312-87.871094 13.320313-23.148437 36.367188-39.058593 62.734375-43.308593v94.671875c-17.992187 2.824218-31.34375 18.1875-31.632812 36.402344l-.050782 3.914062c-.257812 18.914062 13.667969 35.03125 32.417969 37.519531l-.078125 8.550781c-.183594 22.578126 17.949219 41.042969 40.527344 41.269532l5.960938.035156c-8.746094.894531-15.996094 7.171875-18.125 15.703125zm0 0" fill="#0635c9" data-original="#0635C9" class="" data-old_color="#0635c9" style="fill:#3591DB"/><path d="m455.421875 0h-295.0625c-15.941406.0195312-28.863281 12.9375-28.878906 28.882812v164.320313c.015625 15.945313 12.9375 28.863281 28.878906 28.882813h65.179687v31.320312c0 2.3125 1.332032 4.417969 3.417969 5.414062 2.089844.996094 4.5625.703126 6.359375-.753906l44.375-35.980468h175.730469c15.945313-.019532 28.863281-12.9375 28.882813-28.882813v-164.320313c-.019532-15.945312-12.9375-28.8632808-28.882813-28.882812zm16.882813 193.203125c-.011719 9.320313-7.5625 16.871094-16.882813 16.882813h-177.855469c-1.375 0-2.710937.472656-3.777344 1.339843l-36.25 29.394531v-24.730468c0-3.3125-2.6875-6-6-6h-71.179687c-9.316406-.007813-16.871094-7.5625-16.878906-16.882813v-164.324219c.007812-9.320312 7.5625-16.871093 16.878906-16.882812h295.0625c9.320313.011719 16.871094 7.5625 16.882813 16.882812zm0 0" fill="#0635c9" data-original="#0635C9" class="" data-old_color="#0635c9" style="fill:#3591DB"/><g fill="#1ae5be"><path d="m404.570312 60.121094c3.3125 0 6-2.6875 6-6 0-3.316406-2.6875-6-6-6h-64.113281c-3.316406 0-6 2.683594-6 6 0 3.3125 2.683594 6 6 6zm0 0" data-original="#1AE5BE" class="" style="fill:#83CCF2" data-old_color="#1AE5BE"/><path d="m295.230469 60.121094h22.773437c3.316406 0 6-2.6875 6-6 0-3.316406-2.683594-6-6-6h-22.773437c-3.316407 0-6 2.683594-6 6 0 3.3125 2.683593 6 6 6zm0 0" data-original="#1AE5BE" class="" style="fill:#83CCF2" data-old_color="#1AE5BE"/><path d="m444.554688 48.121094h-12.527344c-3.3125 0-6 2.683594-6 6 0 3.3125 2.6875 6 6 6h12.527344c3.3125 0 6-2.6875 6-6 0-3.316406-2.6875-6-6-6zm0 0" data-original="#1AE5BE" class="" style="fill:#83CCF2" data-old_color="#1AE5BE"/><path d="m295.230469 99.1875h64.207031c3.316406 0 6-2.6875 6-6 0-3.316406-2.683594-6-6-6h-64.207031c-3.316407 0-6 2.683594-6 6 0 3.3125 2.683593 6 6 6zm0 0" data-original="#1AE5BE" class="" style="fill:#83CCF2" data-old_color="#1AE5BE"/><path d="m444.554688 87.1875h-60.917969c-3.3125 0-6 2.683594-6 6 0 3.3125 2.6875 6 6 6h60.917969c3.3125 0 6-2.6875 6-6 0-3.316406-2.6875-6-6-6zm0 0" data-original="#1AE5BE" class="" style="fill:#83CCF2" data-old_color="#1AE5BE"/><path d="m295.230469 138.253906h23.917969c3.3125 0 6-2.683594 6-6 0-3.3125-2.6875-6-6-6h-23.917969c-3.316407 0-6 2.6875-6 6 0 3.316406 2.683593 6 6 6zm0 0" data-original="#1AE5BE" class="" style="fill:#83CCF2" data-old_color="#1AE5BE"/><path d="m444.554688 126.253906h-100.949219c-3.316407 0-6 2.6875-6 6 0 3.316406 2.683593 6 6 6h100.949219c3.3125 0 6-2.683594 6-6 0-3.3125-2.6875-6-6-6zm0 0" data-original="#1AE5BE" class="" style="fill:#83CCF2" data-old_color="#1AE5BE"/><path d="m211.320312 171.320312c0 3.3125 2.6875 6 6 6h81.828126c3.3125 0 6-2.6875 6-6s-2.6875-6-6-6h-81.828126c-3.3125 0-6 2.6875-6 6zm0 0" data-original="#1AE5BE" class="" style="fill:#83CCF2" data-old_color="#1AE5BE"/><path d="m193.664062 165.320312h-22.28125c-3.3125 0-6 2.6875-6 6s2.6875 6 6 6h22.28125c3.3125 0 6-2.6875 6-6s-2.6875-6-6-6zm0 0" data-original="#1AE5BE" class="" style="fill:#83CCF2" data-old_color="#1AE5BE"/><path d="m444.554688 165.320312h-121.949219c-3.316407 0-6 2.6875-6 6s2.683593 6 6 6h121.949219c3.3125 0 6-2.6875 6-6s-2.6875-6-6-6zm0 0" data-original="#1AE5BE" class="" style="fill:#83CCF2" data-old_color="#1AE5BE"/><path d="m195.105469 141.839844c8.042969 5.867187 16.960937 10.421875 26.425781 13.5 1.082031.316406 2.230469.324218 3.316406.015625 9.726563-3.050781 18.925782-7.589844 27.265625-13.457031 18.300781-12.933594 27.96875-30.183594 27.96875-49.875v-29.003907c0-2.398437-1.429687-4.570312-3.636719-5.515625l-.320312-.136718c-17.199219-7.402344-33.457031-16.816407-48.4375-28.046876-2.136719-1.601562-5.070312-1.601562-7.203125 0-14.976563 11.230469-31.234375 20.640626-48.429687 28.042969l-.328126.140625c-2.207031.945313-3.640624 3.113282-3.640624 5.515625v29.003907c0 19.652343 9.34375 36.878906 27.019531 49.816406zm-15.023438-74.898438c15.492188-6.9375 30.238281-15.4375 44-25.375 13.761719 9.9375 28.507813 18.4375 44 25.375v25.082032c.039063 6.507812-1.375 12.9375-4.140625 18.828124-.035156 0-.074218-.007812-.113281-.007812-3.3125 0-6 2.6875-6 6v3.058594c0 .183594.011719.367187.03125.546875-3.601563 4.359375-7.773437 8.214843-12.402344 11.460937-6.835937 4.800782-14.308593 8.625-22.199219 11.359375-7.609374-2.742187-14.792968-6.550781-21.332031-11.3125-4.355469-3.167969-8.277343-6.890625-11.671875-11.070312.058594-.328125.085938-.65625.089844-.984375v-3.058594c0-3.3125-2.6875-6-6-6-.09375 0-.179688.011719-.269531.015625-2.664063-5.917969-4.023438-12.34375-3.984375-18.835937zm0 0" data-original="#1AE5BE" class="" style="fill:#83CCF2" data-old_color="#1AE5BE"/><path d="m224.085938 125.902344c3.3125 0 6-2.6875 6-6v-3.058594c0-3.3125-2.6875-6-6-6s-6 2.6875-6 6v3.058594c0 3.3125 2.6875 6 6 6zm0 0" data-original="#1AE5BE" class="" style="fill:#83CCF2" data-old_color="#1AE5BE"/><path d="m243.960938 125.902344c3.3125 0 6-2.6875 6-6v-3.058594c0-3.3125-2.6875-6-6-6s-6 2.6875-6 6v3.058594c0 3.3125 2.6875 6 6 6zm0 0" data-original="#1AE5BE" class="" style="fill:#83CCF2" data-old_color="#1AE5BE"/><path d="m204.210938 125.902344c3.316406 0 6-2.6875 6-6v-3.058594c0-3.3125-2.683594-6-6-6-3.3125 0-6 2.6875-6 6v3.058594c0 3.3125 2.6875 6 6 6zm0 0" data-original="#1AE5BE" class="" style="fill:#83CCF2" data-old_color="#1AE5BE"/></g></g> </svg>
