<svg height="496pt" viewBox="-56 0 496 496" width="496pt" xmlns="http://www.w3.org/2000/svg" xmlns:xlink="http://www.w3.org/1999/xlink"><linearGradient id="a" gradientUnits="userSpaceOnUse" x1="192" x2="192" y1="496" y2="0"><stop offset="0" stop-color="#9f2fff"/><stop offset="1" stop-color="#0bb1d3"/></linearGradient><path d="m192 40c-44.113281 0-80 35.886719-80 80s35.886719 80 80 80 80-35.886719 80-80-35.886719-80-80-80zm0 144c-35.289062 0-64-28.710938-64-64s28.710938-64 64-64 64 28.710938 64 64-28.710938 64-64 64zm-8-112h16v64h-16zm0 80h16v16h-16zm-104 312h-16v-16h16zm-16 16h16v16h-16zm256-16h-16v-16h16zm-16 16h16v16h-16zm-192-152h-16v-16h16zm0 32h-16v-16h16zm-16 16h16v120h-16zm48 8h-16v-72h16zm0 32h-16v-16h16zm-16 16h16v16h-16zm48-104h-16v-16h16zm0 32h-16v-16h16zm-16 16h16v120h-16zm64-48h-16v-16h16zm0 32h-16v-16h16zm-16 16h16v120h-16zm48 8h-16v-72h16zm0 32h-16v-16h16zm-16 16h16v16h-16zm48-104h-16v-16h16zm0 32h-16v-16h16zm-16 16h16v120h-16zm-200-376v100.6875l-72 72v203.3125h64v56h16v-72h-52.6875l108.175781-108.175781 56.511719 46.542969 56.511719-46.542969 108.175781 108.175781h-52.6875v72h16v-56h64v-203.3125l-72-72v-100.6875zm0 123.3125v55.503906l-13.136719-10.816406h-31.550781zm-56 225.375v-164.6875h37.136719l18.863281 15.535156v.464844h.558594l50.519531 41.609375zm176-71.054688-104-85.640624v-175.992188h208v175.992188zm176 71.054688-107.078125-107.078125 50.519531-41.609375h.558594v-.464844l18.863281-15.535156h37.136719zm-11.3125-180.6875h-31.550781l-13.136719 10.816406v-55.503906zm0 0" fill="url(#a)"/></svg>