<svg id="Layer_5" enable-background="new 0 0 64 64" height="512" viewBox="0 0 64 64" width="512" xmlns="http://www.w3.org/2000/svg" xmlns:xlink="http://www.w3.org/1999/xlink"><linearGradient id="SVGID_1_" gradientUnits="userSpaceOnUse" x1="32" x2="32" y1="63" y2="1"><stop offset="0" stop-color="#9f2fff"/><stop offset="1" stop-color="#0bb1d3"/></linearGradient><path d="m50 51v-1c0-.551-.448-1-1-1h-2c-1.654 0-3-1.346-3-3v-3h3v-2h2v2c1.654 0 3 1.346 3 3h-2c0-.551-.448-1-1-1h-3v1c0 .551.448 1 1 1h2c1.654 0 3 1.346 3 3v3h-3v2h-2v-2c-1.654 0-3-1.346-3-3h2c0 .551.448 1 1 1zm-2 6c-4.963 0-9-4.038-9-9 0-2.074.724-4.099 2.038-5.701l-1.547-1.269c-1.606 1.959-2.491 4.434-2.491 6.97 0 6.065 4.935 11 11 11 2.535 0 5.01-.885 6.97-2.491l-1.268-1.547c-1.603 1.314-3.628 2.038-5.702 2.038zm0-20c-2.535 0-5.01.885-6.97 2.491l1.268 1.547c1.603-1.314 3.628-2.038 5.702-2.038 4.963 0 9 4.038 9 9 0 2.074-.724 4.099-2.038 5.701l1.547 1.269c1.606-1.959 2.491-4.434 2.491-6.97 0-6.065-4.935-11-11-11zm11.602 1.506c2.122 2.588 3.398 5.894 3.398 9.494 0 8.271-6.729 15-15 15s-15-6.729-15-15c0-3.6 1.276-6.906 3.398-9.493l-1.895-2.842c-.445-.667-.604-1.468-.445-2.254.156-.785.611-1.462 1.279-1.907.494-.33 1.069-.504 1.662-.504 1.006 0 1.939.5 2.496 1.337l1.581 2.37c.922-.482 1.902-.865 2.924-1.149v-4.558h-2v-2h12v2h-2v4.558c1.022.284 2.001.666 2.923 1.149l1.58-2.371c.558-.836 1.491-1.336 2.497-1.336.593 0 1.168.174 1.662.503.668.445 1.123 1.123 1.279 1.909.158.785 0 1.586-.445 2.253zm-2.972-2.754c.549.388 1.066.814 1.557 1.27l1.645-2.467c.148-.223.201-.489.148-.75-.053-.267-.2-.486-.426-.637-.448-.298-1.092-.166-1.387.277zm-10.63-2.603c.656-.088 1.32-.149 2-.149s1.344.061 2 .149v-4.149h-4zm-9.833 1.406 1.645 2.468c.491-.456 1.009-.883 1.557-1.27l-1.538-2.307c-.295-.444-.938-.575-1.387-.277-.226.15-.373.37-.426.635-.052.262.001.529.149.751zm24.833 13.445c0-7.168-5.832-13-13-13s-13 5.832-13 13 5.832 13 13 13 13-5.832 13-13zm-11-47v2h9.586l-20.586 20.586-7-7-22.707 22.707 1.414 1.414 21.293-21.293 7 7 22-22v9.586h2v-13zm-49 59v-2c0-.771.301-1.468.78-2-.479-.532-.78-1.229-.78-2v-2c0-.771.301-1.468.78-2-.479-.532-.78-1.229-.78-2v-2c0-1.654 1.346-3 3-3h8c1.654 0 3 1.346 3 3v2c0 .771-.301 1.468-.78 2 .48.532.78 1.229.78 2v2c0 .771-.301 1.468-.78 2 .48.532.78 1.229.78 2v2c0 1.654-1.346 3-3 3h-8c-1.654 0-3-1.346-3-3zm12-2c0-.551-.448-1-1-1h-1v2h-2v-2h-2v2h-2v-2h-1c-.552 0-1 .449-1 1v2c0 .551.448 1 1 1h8c.552 0 1-.449 1-1zm-9-3h8c.552 0 1-.449 1-1v-2c0-.551-.448-1-1-1h-1v2h-2v-2h-2v2h-2v-2h-1c-.552 0-1 .449-1 1v2c0 .551.448 1 1 1zm-1-7c0 .551.448 1 1 1h8c.552 0 1-.449 1-1v-2c0-.551-.448-1-1-1h-1v2h-2v-2h-2v2h-2v-2h-1c-.552 0-1 .449-1 1zm14 10c0-.771.301-1.468.78-2-.48-.532-.78-1.229-.78-2v-2c0-.771.301-1.468.78-2-.48-.532-.78-1.229-.78-2v-2c0-.771.301-1.468.78-2-.48-.532-.78-1.229-.78-2v-2c0-1.654 1.346-3 3-3h8c1.654 0 3 1.346 3 3v2c0 .771-.301 1.468-.78 2 .48.532.78 1.229.78 2v2c0 .771-.301 1.468-.78 2 .48.532.78 1.229.78 2v2c0 .771-.301 1.468-.78 2 .48.532.78 1.229.78 2v2c0 1.654-1.346 3-3 3h-8c-1.654 0-3-1.346-3-3zm12 0c0-.551-.448-1-1-1h-1v2h-2v-2h-2v2h-2v-2h-1c-.552 0-1 .449-1 1v2c0 .551.448 1 1 1h8c.552 0 1-.449 1-1zm-9-3h8c.552 0 1-.449 1-1v-2c0-.551-.448-1-1-1h-1v2h-2v-2h-2v2h-2v-2h-1c-.552 0-1 .449-1 1v2c0 .551.448 1 1 1zm0-6h8c.552 0 1-.449 1-1v-2c0-.551-.448-1-1-1h-1v2h-2v-2h-2v2h-2v-2h-1c-.552 0-1 .449-1 1v2c0 .551.448 1 1 1zm-1-7c0 .551.448 1 1 1h8c.552 0 1-.449 1-1v-2c0-.551-.448-1-1-1h-1v2h-2v-2h-2v2h-2v-2h-1c-.552 0-1 .449-1 1zm-12-33h-6v-6h6zm-2-4h-2v2h2zm6-2h-2v2h2zm16 0h-14v2h14zm-16 4h-2v2h2zm16 0h-14v2h14zm-20 10h-6v-6h6zm-2-4h-2v2h2zm6-2h-2v2h2zm16 0h-14v2h14zm-16 4h-2v2h2zm16 0h-14v2h14zm-20 10h-6v-6h6zm-2-4h-2v2h2zm16 2h-12v2h12zm0-4h-12v2h12z" fill="url(#SVGID_1_)"/></svg>