<?xml version="1.0"?>
<svg xmlns="http://www.w3.org/2000/svg" xmlns:xlink="http://www.w3.org/1999/xlink" id="Layer_1" data-name="Layer 1" viewBox="0 0 512 512" width="512" height="512"><defs><linearGradient id="linear-gradient" x1="256.601" y1="492" x2="256.601" y2="7.405" gradientUnits="userSpaceOnUse"><stop offset="0.322" stop-color="#a163f5"/><stop offset="0.466" stop-color="#b074ee"/><stop offset="0.752" stop-color="#d8a1dd"/><stop offset="0.898" stop-color="#efbad3"/></linearGradient><linearGradient id="linear-gradient-2" x1="256" y1="492" x2="256" y2="7.405" xlink:href="#linear-gradient"/><linearGradient id="linear-gradient-4" x1="48.344" y1="492" x2="48.344" y2="7.405" xlink:href="#linear-gradient"/><linearGradient id="linear-gradient-5" x1="463.656" y1="492" x2="463.656" y2="7.405" xlink:href="#linear-gradient"/><linearGradient id="linear-gradient-6" x1="108.833" y1="492" x2="108.833" y2="7.405" xlink:href="#linear-gradient"/><linearGradient id="linear-gradient-7" x1="403.167" y1="492" x2="403.167" y2="7.405" xlink:href="#linear-gradient"/><linearGradient id="linear-gradient-8" x1="402.504" y1="492" x2="402.504" y2="7.405" xlink:href="#linear-gradient"/><linearGradient id="linear-gradient-9" x1="109.496" y1="492" x2="109.496" y2="7.405" xlink:href="#linear-gradient"/><linearGradient id="linear-gradient-10" x1="256.062" y1="492" x2="256.062" y2="7.405" xlink:href="#linear-gradient"/><linearGradient id="linear-gradient-11" x1="347.334" y1="492" x2="347.334" y2="7.405" xlink:href="#linear-gradient"/><linearGradient id="linear-gradient-12" x1="164.666" y1="492" x2="164.666" y2="7.405" xlink:href="#linear-gradient"/></defs><title>Affiliate marketing</title><path d="M256.6,98.726c-87.031,0-157.836,70.638-157.836,157.465a156.214,156.214,0,0,0,14.363,65.594,5.982,5.982,0,0,0,.66,1.408A158.059,158.059,0,0,0,256.6,413.657c87.032,0,157.837-70.638,157.837-157.466S343.632,98.726,256.6,98.726Zm0,12c80.415,0,145.837,65.255,145.837,145.465a144.394,144.394,0,0,1-10.208,53.471,36.928,36.928,0,0,0-22.75-9.718c-3.07-.157-4.706,1.85-5.786,3.167a20.46,20.46,0,0,1-32.284-.786,6.035,6.035,0,0,0-4.976-2.432,36.353,36.353,0,0,0-17.135,4.724A40.951,40.951,0,0,0,281.41,291.2c-3.133-.195-4.788,1.826-6,3.3a24.229,24.229,0,0,1-38.231-.933,6.059,6.059,0,0,0-4.976-2.432,41.031,41.031,0,0,0-29.369,13.59,36.689,36.689,0,0,0-16.025-4.784c-3.069-.138-4.707,1.851-5.787,3.167a20.46,20.46,0,0,1-32.284-.786,6.032,6.032,0,0,0-4.975-2.432,36.677,36.677,0,0,0-23.107,8.961,144.387,144.387,0,0,1-9.894-52.663C110.764,175.981,176.186,110.726,256.6,110.726ZM125.862,320.593a24.721,24.721,0,0,1,15.415-8.477,32.468,32.468,0,0,0,47.685.141,24.579,24.579,0,0,1,7.157,2.456,40.514,40.514,0,0,0-3.987,17.523v54.41A146.616,146.616,0,0,1,125.862,320.593Zm78.27,71.32V332.236a29.319,29.319,0,0,1,25.545-28.891,36.238,36.238,0,0,0,53.826.145,29.152,29.152,0,0,1,24.489,28.746v60.086a146.132,146.132,0,0,1-103.86-.409Zm115.86-4.732V332.236a40.88,40.88,0,0,0-3.977-17.609,24.363,24.363,0,0,1,7.927-2.514,32.47,32.47,0,0,0,47.686.147,24.87,24.87,0,0,1,15.254,9.25A146.636,146.636,0,0,1,319.992,387.181Z" style="fill:url(#linear-gradient)"/><path d="M233.726,46.759l15.336-15.336V80.688a6,6,0,0,0,12,0V30.062c0-.183-.011-.363-.027-.542l17.239,17.239a6,6,0,0,0,8.485-8.485L260.243,11.758a6,6,0,0,0-8.486,0L225.241,38.274a6,6,0,1,0,8.485,8.485Z" style="fill:url(#linear-gradient-2)"/><path d="M278.274,465.241l-15.337,15.336V431.312a6,6,0,0,0-12,0v50.626c0,.183.012.363.028.542l-17.239-17.239a6,6,0,1,0-8.485,8.485l26.516,26.516a6,6,0,0,0,8.486,0l26.516-26.516a6,6,0,0,0-8.485-8.485Z" style="fill:url(#linear-gradient-2)"/><path d="M31.423,262.938H80.688a6,6,0,0,0,0-12H30.062c-.183,0-.363.011-.542.027l17.239-17.239a6,6,0,1,0-8.485-8.485L11.757,251.758a6,6,0,0,0,0,8.484l26.517,26.517a6,6,0,0,0,8.485-8.485Z" style="fill:url(#linear-gradient-4)"/><path d="M473.726,225.241a6,6,0,1,0-8.485,8.485l15.336,15.336H431.312a6,6,0,0,0,0,12h50.625c.184,0,.364-.011.543-.027l-17.239,17.239a6,6,0,1,0,8.485,8.485l26.517-26.517a6,6,0,0,0,0-8.484Z" style="fill:url(#linear-gradient-5)"/><path d="M86.294,129.794a6,6,0,0,0,6-6V102.105L127.13,136.94a6,6,0,0,0,8.485-8.484l-35.8-35.8c-.139-.139-.3-.242-.447-.365h24.423a6,6,0,1,0,0-12h-37.5a6,6,0,0,0-6,6v37.5A6,6,0,0,0,86.294,129.794Z" style="fill:url(#linear-gradient-6)"/><path d="M425.706,382.206a6,6,0,0,0-6,6V409.9L384.87,375.06a6,6,0,0,0-8.485,8.484l35.8,35.8c.139.139.3.242.447.365H388.206a6,6,0,0,0,0,12h37.5a6,6,0,0,0,6-6v-37.5A6,6,0,0,0,425.706,382.206Z" style="fill:url(#linear-gradient-7)"/><path d="M379.3,137.372a5.979,5.979,0,0,0,4.242-1.758l35.8-35.8c.138-.138.241-.3.364-.445v24.422a6,6,0,1,0,12,0v-37.5a6,6,0,0,0-6-6h-37.5a6,6,0,0,0,0,12H409.9L375.059,127.13a6,6,0,0,0,4.243,10.242Z" style="fill:url(#linear-gradient-8)"/><path d="M128.456,376.386l-35.8,35.8c-.138.138-.241.3-.364.445V388.206a6,6,0,0,0-12,0v37.5a6,6,0,0,0,6,6h37.5a6,6,0,1,0,0-12H102.105l34.836-34.836a6,6,0,0,0-8.485-8.484Z" style="fill:url(#linear-gradient-9)"/><path d="M256.062,291.431a37.246,37.246,0,0,0,37.2-37.2v-15.6a37.2,37.2,0,1,0-74.408,0v15.6A37.247,37.247,0,0,0,256.062,291.431Zm-25.2-52.807a25.2,25.2,0,1,1,50.408,0v15.6a25.2,25.2,0,1,1-50.408,0Z" style="fill:url(#linear-gradient-10)"/><path d="M347.334,301.645a33.351,33.351,0,0,0,33.313-33.314V254.674a33.313,33.313,0,1,0-66.626,0v13.657A33.351,33.351,0,0,0,347.334,301.645Zm-21.313-46.971a21.313,21.313,0,0,1,42.626,0v13.657a21.338,21.338,0,0,1-21.313,21.314h0a21.338,21.338,0,0,1-21.313-21.314Z" style="fill:url(#linear-gradient-11)"/><path d="M164.666,301.645a33.351,33.351,0,0,0,33.313-33.314V254.674a33.313,33.313,0,0,0-66.626,0v13.657A33.351,33.351,0,0,0,164.666,301.645Zm-21.313-46.971a21.313,21.313,0,0,1,42.626,0v13.657a21.338,21.338,0,0,1-21.313,21.314h0a21.338,21.338,0,0,1-21.313-21.314Z" style="fill:url(#linear-gradient-12)"/></svg>
