<svg height="496pt" viewBox="0 0 496 496" width="496pt" xmlns="http://www.w3.org/2000/svg" xmlns:xlink="http://www.w3.org/1999/xlink"><linearGradient id="a" gradientUnits="userSpaceOnUse" x1="248" x2="248" y1="496" y2="0"><stop offset="0" stop-color="#9f2fff"/><stop offset="1" stop-color="#0bb1d3"/></linearGradient><path d="m336 320v6.984375c0 7.75-2.816406 15.238281-7.910156 21.070313l-45.457032 51.945312h53.367188v16h-72v-19l52.039062-59.480469c2.554688-2.917969 3.960938-6.664062 3.960938-10.535156v-6.984375c0-8.824219-7.175781-16-16-16s-16 7.175781-16 16v16h-16v-16c0-17.648438 14.351562-32 32-32s32 14.351562 32 32zm96 56h16v16h-16v24h-16v-24h-64v-18.519531l59.832031-85.480469h20.167969zm-16-66.046875-46.230469 66.046875h46.230469zm80 50.046875c0 74.992188-61.007812 136-136 136-49.328125 0-92.480469-26.488281-116.320312-65.902344-9.160157 1.175782-18.433594 1.902344-27.679688 1.902344-119.105469 0-216-96.894531-216-216s96.894531-216 216-216 216 96.894531 216 216c0 9.238281-.726562 18.511719-1.894531 27.679688 39.40625 23.839843 65.894531 66.992187 65.894531 116.320312zm-260.3125 54.921875c-2.230469-5.035156-4.207031-10.203125-5.824219-15.53125-4.6875.363281-9.34375.609375-13.863281.609375-101.464844 0-184-82.542969-184-184s82.535156-184 184-184 184 82.542969 184 184c0 4.511719-.246094 9.167969-.609375 13.863281 5.328125 1.617188 10.496094 3.59375 15.53125 5.824219.636719-6.550781 1.078125-13.121094 1.078125-19.6875 0-110.28125-89.71875-200-200-200s-200 89.71875-200 200 89.71875 200 200 200c6.566406 0 13.144531-.441406 19.6875-1.078125zm124.3125-190.921875c8.078125 0 15.960938.839844 23.65625 2.199219.214844-3.457031.34375-6.871094.34375-10.199219 0-43.441406-16.71875-82.960938-43.871094-112.808594l-22.304687 22.296875-11.3125-11.3125 22.304687-22.296875c-28-25.472656-64.535156-41.558594-104.816406-43.472656v31.59375h-16v-31.59375c-40.28125 1.914062-76.816406 18-104.816406 43.472656l22.304687 22.296875-11.3125 11.3125-22.304687-22.296875c-25.464844 27.992188-41.558594 64.527344-43.464844 104.808594h31.59375v16h-31.59375c1.914062 40.28125 18 76.816406 43.472656 104.808594l22.304688-22.296875 11.3125 11.3125-22.304688 22.296875c29.847656 27.160156 69.367188 43.878906 112.808594 43.878906 3.335938 0 6.742188-.128906 10.199219-.34375-1.359375-7.703125-2.199219-15.578125-2.199219-23.65625 0-74.992188 61.007812-136 136-136zm120 136c0-66.167969-53.832031-120-120-120s-120 53.832031-120 120 53.832031 120 120 120 120-53.832031 120-120zm-272-147.3125-37.65625 37.65625 11.3125 11.3125 42.34375-42.34375v-91.3125h-16zm0 0" fill="url(#a)"/></svg>