<svg height="496pt" viewBox="-56 0 496 496" width="496pt" xmlns="http://www.w3.org/2000/svg" xmlns:xlink="http://www.w3.org/1999/xlink"><linearGradient id="linear0" gradientUnits="userSpaceOnUse" x1="192" x2="192" y1="496" y2="0"><stop offset="0" stop-color="#9f2fff"/><stop offset="1" stop-color="#0bb1d3"/></linearGradient><path d="m0 456v40h384v-40c0-22.054688-17.945312-40-40-40h-77.097656c64.21875-28.742188 109.097656-93.207031 109.097656-168 0-72.96875-42.40625-138.152344-108.609375-167.847656l14.144531-80.152344h-179.070312l14.144531 80.152344c-66.203125 29.695312-108.609375 94.878906-108.609375 167.847656 0 74.792969 44.878906 139.257812 109.097656 168h-77.097656c-22.054688 0-40 17.945312-40 40zm24-208c0-68.601562 41.0625-129.664062 104.609375-155.59375l5.976563-2.4375-13.050782-73.96875h140.929688l-13.058594 73.976562 5.984375 2.4375c63.546875 25.921876 104.609375 86.984376 104.609375 155.585938 0 92.640625-75.359375 168-168 168s-168-75.359375-168-168zm320 184c13.230469 0 24 10.769531 24 24v24h-352v-24c0-13.230469 10.769531-24 24-24zm-131.183594-334.398438 16.078125-12.867187c7.058594-5.65625 11.105469-14.078125 11.105469-23.117187 0-16.328126-13.289062-29.617188-29.617188-29.617188h-1.429687c-6.152344 0-12.015625 1.863281-16.953125 5.328125-4.9375-3.464844-10.800781-5.328125-16.953125-5.328125h-1.429687c-16.328126 0-29.617188 13.289062-29.617188 29.617188 0 9.039062 4.046875 17.472656 11.113281 23.117187l16.070313 12.867187c-73.976563 10.199219-131.183594 73.664063-131.183594 150.398438 0 83.816406 68.183594 152 152 152s152-68.183594 152-152c0-76.734375-57.207031-140.199219-131.183594-150.398438zm3.183594 182.320313v-63.84375c9.871094 7.425781 16 19.167969 16 31.921875s-6.128906 24.496094-16 31.921875zm9.480469-76.714844c-2.914063-2.183593-6.128907-4-9.480469-5.589843v-37.617188h-16v-47.59375c31.472656 1.839844 60.039062 14.378906 82.191406 34.089844zm-41.480469 116.792969v-144h16v144zm0-160h-16v37.617188c-3.351562 1.597656-6.558594 3.40625-9.480469 5.589843l-56.71875-56.71875c22.160157-19.710937 50.726563-32.242187 82.191407-34.089843v47.601562zm-16 119.921875c-9.871094-7.425781-16-19.167969-16-31.921875s6.128906-24.496094 16-31.921875zm-20.753906-65.363281c-5.527344 7.394531-9.261719 16.089844-10.621094 25.441406h-80.21875c1.839844-31.472656 14.378906-60.039062 34.089844-82.191406zm-10.613282 41.441406c1.359376 9.351562 5.085938 18.046875 10.625 25.441406l-56.761718 56.757813c-19.710938-22.152344-32.238282-50.726563-34.089844-82.191407h80.226562zm21.886719 36.792969c2.921875 2.183593 6.128907 4 9.480469 5.589843v37.617188h16v47.59375c-31.472656-1.839844-60.039062-14.378906-82.191406-34.089844zm41.480469 43.207031h16v-37.617188c3.351562-1.597656 6.558594-3.40625 9.480469-5.589843l56.71875 56.71875c-22.152344 19.710937-50.726563 32.242187-82.191407 34.089843v-47.601562zm36.753906-54.558594c5.527344-7.394531 9.261719-16.089844 10.621094-25.441406h80.226562c-1.839843 31.472656-14.378906 60.039062-34.089843 82.191406zm10.613282-41.441406c-1.359376-9.351562-5.085938-18.046875-10.625-25.441406l56.761718-56.757813c19.710938 22.160157 32.238282 50.726563 34.089844 82.191407h-80.226562zm-87.367188-178.382812c0-7.511719 6.105469-13.617188 13.617188-13.617188h1.429687c3.640625 0 7.058594 1.414062 9.632813 3.984375l7.320312 7.328125 7.328125-7.328125c2.566406-2.570313 5.992187-3.984375 9.625-3.984375h1.429687c7.511719 0 13.617188 6.105469 13.617188 13.617188 0 4.152343-1.863281 8.03125-5.105469 10.628906l-26.894531 21.507812-26.886719-21.515625c-3.25-2.589843-5.113281-6.46875-5.113281-10.621093zm192 402.382812h-16v-16h16zm-32 0h-16v-16h16zm-32 0h-16v-16h16zm0 0" fill="url(#linear0)"/></svg>