<svg height="474pt" viewBox="-76 0 474 474.446" width="474pt" xmlns="http://www.w3.org/2000/svg" xmlns:xlink="http://www.w3.org/1999/xlink"><linearGradient id="a" gradientUnits="userSpaceOnUse" x1="241.009876" x2="21.009876" y1="288.3881" y2="68.3881"><stop offset="0" stop-color="#6094ea"/><stop offset="1" stop-color="#f02fc2"/></linearGradient><path d="m298.542969 329.296875h-53.421875v-27.207031c0-.007813 0-.011719 0-.019532 0-11.058593-8.996094-20.054687-20.054688-20.054687h-12.667968v-17.929687c0-3.3125-2.6875-6-6-6h-10.988282c-2.558594-2.921876-9.359375-12.953126-13.472656-40.042969.359375-.066407.710938-.148438 1.066406-.21875.234375-.046875.464844-.097657.695313-.144531 1.71875-.359376 3.429687-.746094 5.125-1.183594.097656-.023438.191406-.050782.28125-.082032.359375-.09375.707031-.203124 1.066406-.304687.6875-.1875 1.375-.382813 2.058594-.585937 1.1875-.347657 2.359375-.71875 3.527343-1.105469.242188-.078125.480469-.15625.71875-.238281 28.039063-9.496094 50.457032-29.722657 63.097657-55.335938 15.070312-.816406 27.785156-6.492188 37.828125-16.925781 26.007812-27.027344 24.804687-76.589844 24.6875-80.0625v-29.199219c0-3.3125-2.6875-6-6-6h-45.1875v-8.101562c0-10.230469-8.320313-18.554688-18.546875-18.554688h-182.367188c-10.230469 0-18.554687 8.324219-18.554687 18.554688v8.101562h-45.167969c-3.316406 0-6 2.6875-6 6v29.199219c-.121094 3.472656-1.324219 53.039062 24.683594 80.0625 10.039062 10.433593 22.75 16.109375 37.808593 16.925781 12.648438 25.628906 35.085938 45.863281 63.144532 55.351562.167968.058594.339844.113282.507812.167969 1.242188.414063 2.496094.8125 3.761719 1.183594.640625.1875 1.285156.371094 1.933594.550781.375.101563.746093.21875 1.121093.316406.097657.03125.191407.058594.289063.082032 1.660156.429687 3.328125.808594 4.992187 1.160156-4.105468 27.378906-10.957031 37.492188-13.527343 40.429688h-9.027344c-3.3125 0-6 2.6875-6 6v17.929687h-12.667969c-10.367187 0-18.921875 7.910156-19.953125 18.007813-.066406.671874-.101562 1.355468-.101562 2.046874v27.226563h-53.421875c-3.3125 0-6 2.6875-6 6v8.613281c0 15.09375 12.277344 27.371094 27.363281 27.371094h10.402344v2.613281c0 15.09375 12.273437 27.375 27.363281 27.375h1.320312v67.175781c0 3.3125 2.683594 6 6 6h141.835938c3.3125 0 6-2.6875 6-6v-67.175781h1.316406c15.078125 0 27.34375-12.257812 27.363282-27.335937 0-.011719.003906-.023438.003906-.039063v-2.613281h10.398437c15.089844 0 27.367188-12.277344 27.367188-27.371094v-8.613281c0-3.316406-2.6875-6-6-6zm-33.515625-183.585937c.394531-1.152344.769531-2.316407 1.125-3.488282.085937-.277344.167968-.554687.25-.835937.789062-2.660157 1.476562-5.359375 2.066406-8.101563.019531-.097656.042969-.195312.0625-.296875.296875-1.394531.5625-2.800781.804688-4.21875.019531-.109375.035156-.21875.054687-.328125.480469-2.867187.847656-5.765625 1.101563-8.703125.007812-.109375.019531-.21875.027343-.332031.121094-1.425781.210938-2.859375.273438-4.300781.007812-.15625.011719-.308594.015625-.464844.058594-1.453125.097656-2.914063.097656-4.378906 0-.019531-.003906-.039063-.003906-.058594v-71.546875h39.1875v23.308594c0 .070312 0 .148437.003906.222656.015625.476562 1.488281 47.722656-21.359375 71.433594-6.613281 6.863281-14.484375 11.019531-23.875 12.601562.058594-.171875.113281-.339844.167969-.511718zm-231.410156-12.089844c-22.847657-23.710938-21.375-70.957032-21.355469-71.429688 0-.074218.003906-.152344.003906-.226562v-23.308594h39.167969v71.566406c0 .011719-.003906.023438-.003906.039063 0 1.449219.039062 2.886719.09375 4.320312.007812.1875.011718.375.019531.5625.0625 1.417969.152343 2.824219.265625 4.222657.011718.148437.027344.289062.039062.4375.25 2.890624.617188 5.753906 1.085938 8.582031.023437.140625.046875.285156.074218.429687.234376 1.386719.496094 2.761719.785157 4.132813.027343.136719.0625.277343.089843.414062.292969 1.359375.605469 2.710938.949219 4.046875.007813.042969.019531.085938.027344.125.328125 1.273438.683594 2.535156 1.054687 3.789063.09375.320312.1875.640625.285157.957031.347656 1.136719.710937 2.269531 1.09375 3.390625.0625.179687.117187.367187.179687.550781-9.378906-1.585937-17.242187-5.742187-23.855468-12.601562zm101.683593 70.90625c-.488281-.132813-.96875-.269532-1.449219-.410156-28.246093-8.234376-51.242187-28.898438-62.644531-55.652344-.109375-.261719-.21875-.519532-.324219-.78125-.390624-.9375-.765624-1.882813-1.125-2.835938-.21875-.578125-.4375-1.15625-.644531-1.738281-.15625-.4375-.3125-.875-.460937-1.316406-.332032-.972657-.652344-1.953125-.953125-2.941407-.09375-.304687-.183594-.613281-.273438-.921874-.324219-1.105469-.640625-2.210938-.925781-3.332032-.011719-.039062-.019531-.078125-.03125-.117187-.300781-1.183594-.578125-2.378907-.835938-3.578125-.03125-.140625-.0625-.28125-.09375-.421875-.253906-1.214844-.488281-2.433594-.699218-3.664063-.023438-.128906-.042969-.261718-.066406-.390625-.421876-2.527343-.746094-5.082031-.96875-7.660156-.011719-.125-.023438-.25-.03125-.375-.105469-1.253906-.183594-2.515625-.242188-3.78125-.003906-.160156-.011719-.320313-.015625-.480469-.050781-1.285156-.082031-2.578125-.082031-3.875v-91.699218c0-3.613282 2.941406-6.554688 6.554687-6.554688h182.367188c3.609375 0 6.546875 2.941406 6.546875 6.554688v91.703124c0 1.316407-.027344 2.625-.082032 3.929688-.003906.128906-.007812.253906-.015624.382812-.054688 1.292969-.136719 2.578126-.242188 3.859376-.007812.09375-.015625.183593-.027344.277343-.222656 2.617188-.554687 5.210938-.980468 7.777344-.019532.097656-.035157.195313-.050782.292969-.214844 1.253906-.453125 2.503906-.714844 3.746094-.023437.105468-.046874.207031-.070312.3125-.515625 2.417968-1.128906 4.800781-1.824219 7.148437-.082031.277344-.160156.550781-.246093.824219-.308594 1.015625-.632813 2.019531-.976563 3.023437-.136719.40625-.28125.804688-.425781 1.207031-.226563.640626-.464844 1.273438-.703125 1.90625-.328125.863282-.667969 1.722657-1.023438 2.578126-.136719.332031-.273437.664062-.414062.996093-11.40625 26.714844-34.375 47.351563-62.582031 55.589844-.511719.148437-1.027344.292969-1.542969.433594-1.972657.542969-3.964844 1.027343-5.984375 1.445312-.09375.019531-.191406.039063-.285156.058594-.679688.136719-1.359376.265625-2.039063.390625-.257813.046875-.515625.089844-.773437.132812-.59375.105469-1.1875.207032-1.789063.296876-.546875.085937-1.097656.160156-1.648437.234374-.011719.003907-.019532.003907-.027344.003907-.019532 0-.035156.007812-.050782.007812-.019531.003907-.03125.003907-.046874.007813-.546876.074218-1.089844.140625-1.636719.207031-.644531.074219-1.285157.148437-1.929688.210937-.332031.035157-.667969.0625-1.003906.089844-.636719.054688-1.273437.105469-1.910156.148438-.316407.023437-.632813.042968-.949219.0625-.703125.039062-1.402344.070312-2.105469.097656-.25.007812-.5.019531-.75.027344-.960937.027344-1.921875.046875-2.882812.046875-1.050781 0-2.101563-.023438-3.148438-.058594-.269531-.007813-.539062-.019531-.808593-.027344-.820313-.035156-1.640626-.078125-2.457032-.128906-.257812-.019531-.515625-.03125-.769531-.050781-1.003906-.074219-2-.160156-2.996094-.265625-.257812-.027344-.515625-.058594-.773437-.085938-.789063-.089843-1.574219-.1875-2.355469-.292969-.351563-.046874-.703125-.097656-1.050781-.148437-.355469-.050781-.707032-.109375-1.066406-.164063-.570313-.089843-1.140626-.183593-1.710938-.285156-.136719-.023437-.273438-.050781-.410156-.074218-2.816406-.515626-5.59375-1.152344-8.320313-1.902344zm45.761719 53.558594h-41.734375c3.890625-7.375 8.15625-19.359376 11.039063-38.609376.914062.089844 1.832031.167969 2.753906.238282.273437.019531.550781.03125.824218.050781.929688.0625 1.859376.109375 2.792969.148437.296875.011719.597657.023438.894531.03125 1.175782.039063 2.351563.066407 3.535157.066407 1.09375 0 2.179687-.023438 3.261719-.054688.28125-.007812.5625-.019531.84375-.03125.800781-.03125 1.605468-.066406 2.40625-.113281.339843-.019531.679687-.042969 1.019531-.066406.449219-.03125.898437-.058594 1.347656-.097656 2.882813 19.152343 7.136719 31.082031 11.015625 38.4375zm-59.109375 12h78.445313v11.929687h-78.445313zm-32.722656 31.984374c0-4.441406 3.613281-8.054687 8.054687-8.054687h18.632813c.011719 0 .023437.003906.035156.003906h90.445313c.011718 0 .027343-.003906.039062-.003906h18.628906c4.441406 0 8.054688 3.613281 8.054688 8.054687v27.226563h-143.890625zm136.863281 160.375h-25.054688v-47.949218c0-3.3125-2.6875-6-6-6s-6 2.6875-6 6v47.949218h-21.863281v-47.949218c0-3.3125-2.6875-6-6-6s-6 2.6875-6 6v47.949218h-21.863281v-47.949218c0-3.3125-2.683594-6-6-6-3.3125 0-6 2.6875-6 6v47.949218h-25.054688v-61.175781h129.835938zm28.683594-88.570312v.019531c0 8.476563-6.890625 15.375-15.363282 15.375h-156.476562c-8.472656 0-15.363281-6.898437-15.363281-15.375v-2.613281h187.203125zm37.765625-29.96875c0 8.480469-6.894531 15.375-15.363281 15.375h-232.003907c-8.472656 0-15.367187-6.894531-15.367187-15.375v-2.609375h53.402344.019531 155.890625.019531 53.402344zm0 0" fill="url(#a)"/></svg>